<svg width="36" height="35" viewBox="0 0 36 35" fill="none" xmlns="http://www.w3.org/2000/svg">
<path d="M30.5851 10.0887L30.6997 10.4291H31.0589H34.5732V12.1596H31.8116H31.2677L31.3134 12.7015C31.5508 15.5205 30.6099 18.0897 28.7347 19.9648L27.2711 20.9301L26.9558 21.138L27.0696 21.4981L28.3241 25.4697L28.324 25.4698L28.327 25.4788C28.547 26.1318 28.5517 26.7907 28.5517 27.8014C28.5517 29.1503 28.1071 30.2904 27.1438 31.7238C26.1634 32.9341 25.2372 33.8284 23.8772 34.2769C23.2162 34.4949 22.3007 34.5 21.5249 34.5C19.2055 34.5 17.3347 33.3611 15.9018 31.471L15.686 31.1863L15.3468 31.2982C14.6857 31.5162 14.0211 31.5213 12.7435 31.5213C10.1254 31.5213 7.99104 30.5877 6.07006 28.6871C4.74601 27.3771 3.91991 25.9657 3.5374 24.452C3.15448 22.9366 3.20826 21.2874 3.69222 19.4918L3.79097 19.1254L3.46467 18.9317C2.36043 18.2763 1.66164 17.1726 0.921186 15.469C0.456715 13.8436 0.457262 12.4633 0.922826 10.8373C1.39928 9.6667 2.09814 8.53054 3.48474 7.61597L3.50279 7.60406L3.51975 7.59064C4.68407 6.66909 6.07958 6.20922 7.47468 6.20922C8.38797 6.20922 9.07159 6.43139 9.82204 6.67887L13.3296 7.91824L13.6251 8.02265L13.8478 7.80225L14.8514 6.80934C16.7724 4.90879 18.9068 3.97518 21.5249 3.97518H22.5284H23.0284V3.47518V0.5H24.5374V3.7234V4.05811L24.8468 4.18567C27.7398 5.37824 29.6329 7.26265 30.5851 10.0887ZM6.50029 16.0865L6.53867 16.1054L6.57972 16.1176C9.26464 16.9145 12.4153 16.3585 16.4777 14.3489L17.5165 13.835L16.43 13.4319L8.40129 10.4532L8.39268 10.45L8.38396 10.4471C7.55884 10.175 6.78497 10.1468 6.12395 10.4738C5.46195 10.8013 5.01872 11.4327 4.74278 12.2517C4.46512 13.0758 4.44144 13.8384 4.76509 14.5188C5.08346 15.1882 5.69627 15.6887 6.50029 16.0865ZM18.7883 28.1947L18.8009 28.2364L18.8205 28.2752C19.2235 29.0726 19.7299 29.6783 20.4043 29.9923C21.0881 30.3106 21.8543 30.2878 22.685 30.0139C23.5118 29.7412 24.1546 29.301 24.4853 28.6057C24.811 27.9212 24.7812 27.0978 24.5142 26.1733L24.5078 26.1513L24.4994 26.1299L21.4887 18.4348L21.0812 17.3934L20.5768 18.3915C18.5453 22.4113 17.9812 25.5329 18.7883 28.1947ZM25.0716 16.5602L25.3919 17.405L25.9376 16.685C26.3394 16.155 26.6685 15.5667 26.9523 15.0364C27.0077 14.9328 27.061 14.8323 27.1126 14.735C27.3332 14.3188 27.5218 13.9631 27.7101 13.6837L27.7955 13.557V13.4043C27.7955 11.9965 27.2139 10.8826 26.1417 9.82187C25.047 8.73874 23.6671 8.18794 22.2775 8.18794C20.8731 8.18794 19.7657 8.75011 18.718 9.52755L17.9774 10.0771L18.842 10.3979L22.8563 11.8872L22.9405 11.9184H23.0302H23.0756L23.5338 12.3718V12.4113V12.5029L23.5663 12.5886L25.0716 16.5602Z" fill="#FAF3E0" stroke="#2E2E2E"/>
</svg>
