<svg width="43" height="43" viewBox="0 0 43 43" fill="none" xmlns="http://www.w3.org/2000/svg">
<path d="M37.5943 12.3582L37.7089 12.6986H38.0681H42.5V15.0532H38.9928H38.449L38.4946 15.5952C38.7894 19.0949 37.6191 22.2882 35.2852 24.6172L33.4774 25.8096L33.1622 26.0175L33.2759 26.3775L34.8171 31.257L34.817 31.257L34.8201 31.266C35.0974 32.0893 35.1022 32.9183 35.1022 34.156C35.1022 35.8452 34.5429 37.269 33.3502 39.043C32.1402 40.537 30.9847 41.6582 29.2807 42.2202C28.4476 42.4949 27.3027 42.5 26.3548 42.5C23.462 42.5 21.1324 41.0775 19.3554 38.7334L19.1396 38.4487L18.8004 38.5606C17.9673 38.8354 17.1307 38.8404 15.5663 38.8404C12.3174 38.8404 9.66691 37.6799 7.28714 35.3254C5.64768 33.7034 4.62086 31.9516 4.14516 30.069C3.66905 28.1848 3.73717 26.1384 4.33582 23.9174L4.43457 23.551L4.10827 23.3573C2.71743 22.5316 1.84654 21.1445 0.933949 19.0435C0.3548 17.0209 0.355351 15.3002 0.9356 13.277C1.52679 11.8226 2.3977 10.4028 4.12835 9.26136L4.1464 9.24945L4.16336 9.23603C5.61442 8.08753 7.35401 7.51418 9.09319 7.51418C10.2358 7.51418 11.0915 7.79307 12.014 8.0973L16.3245 9.62037L16.6199 9.72477L16.8427 9.50438L18.0757 8.28452C20.4554 5.93007 23.1059 4.7695 26.3548 4.7695H27.5878H28.0878V4.2695V0.5H30.1703V4.57447V4.90917L30.4797 5.03673C34.0608 6.51299 36.4127 8.8513 37.5943 12.3582ZM7.94676 19.6609L7.98514 19.6799L8.02619 19.6921C11.2846 20.6592 15.1234 19.9897 20.1034 17.5262L21.1421 17.0123L20.0556 16.6092L10.1918 12.9497L10.1832 12.9465L10.1745 12.9436C9.17736 12.6147 8.26012 12.5865 7.4844 12.9703C6.7077 13.3545 6.17845 14.0994 5.84517 15.0886C5.51015 16.0829 5.48647 16.9873 5.86747 17.7883C6.24319 18.5783 6.9707 19.1781 7.94676 19.6609ZM23.1022 34.6061L23.1148 34.6477L23.1344 34.6865C23.6234 35.6542 24.2302 36.3733 25.0264 36.7441C25.832 37.1191 26.7417 37.0963 27.7444 36.7656C28.7432 36.4362 29.5008 35.9109 29.8888 35.0951C30.2718 34.2899 30.242 33.3106 29.9176 32.1875L29.9113 32.1654L29.9029 32.1441L26.204 22.6902L25.7965 21.6487L25.2921 22.6468C22.8018 27.5744 22.123 31.3768 23.1022 34.6061ZM30.8192 20.3049L31.1394 21.1497L31.6852 20.4297C32.173 19.7862 32.5738 19.0702 32.922 18.4194C32.9894 18.2935 33.0544 18.1709 33.1174 18.052C33.3888 17.5402 33.6241 17.0962 33.8591 16.7475L33.9444 16.6208V16.4681C33.9444 14.7767 33.2481 13.4358 31.9466 12.1481C30.6225 10.838 28.9558 10.1738 27.2796 10.1738C25.5884 10.1738 24.2516 10.8494 22.9745 11.797L22.2339 12.3466L23.0985 12.6674L28.0304 14.4971L28.1145 14.5284H28.2043H28.307L28.9373 15.1519V15.2482V15.3398L28.9697 15.4254L30.8192 20.3049Z" fill="#2E2E2E" stroke="#2E2E2E"/>
</svg>
