<svg width="56" height="56" viewBox="0 0 56 56" fill="none" xmlns="http://www.w3.org/2000/svg">
<g filter="url(#filter0_d_203_42)">
<path d="M40.0246 25.175C39.6585 25.175 39.3042 25.0752 38.9619 24.8756C38.6177 24.6777 38.3541 24.4242 38.171 24.115L34.7383 18.285C34.5553 17.9758 34.4637 17.6225 34.4637 17.225C34.4637 16.8275 34.5553 16.4742 34.7383 16.165L38.171 10.335C38.3541 10.0258 38.6177 9.77143 38.9619 9.5718C39.3042 9.37393 39.6585 9.275 40.0246 9.275H47.0272C47.3934 9.275 47.7485 9.37393 48.0927 9.5718C48.435 9.77143 48.6978 10.0038 48.8808 10.2688L52.7254 16.2313C52.9085 16.4963 53 16.8275 53 17.225C53 17.6225 52.9085 17.9538 52.7254 18.2188L48.8808 24.1813C48.6978 24.4463 48.435 24.6777 48.0927 24.8756C47.7485 25.0752 47.3934 25.175 47.0272 25.175H40.0246ZM22.9987 34.45C22.6326 34.45 22.2783 34.3502 21.936 34.1506C21.5918 33.9527 21.3282 33.7213 21.1451 33.4563L17.3005 27.4938C17.1174 27.2288 17.0259 26.8975 17.0259 26.5C17.0259 26.1025 17.1174 25.7713 17.3005 25.5063L21.1451 19.5438C21.3282 19.2788 21.5918 19.0473 21.936 18.8495C22.2783 18.6498 22.6326 18.55 22.9987 18.55H30.0013C30.3674 18.55 30.7226 18.6498 31.0668 18.8495C31.4091 19.0473 31.6719 19.2788 31.8549 19.5438L35.6995 25.5063C35.8826 25.7713 35.9741 26.1025 35.9741 26.5C35.9741 26.8975 35.8826 27.2288 35.6995 27.4938L31.8549 33.4563C31.6719 33.7213 31.4091 33.9527 31.0668 34.1506C30.7226 34.3502 30.3674 34.45 30.0013 34.45H22.9987ZM22.9987 15.9C22.6326 15.9 22.2783 15.8002 21.936 15.6006C21.5918 15.4027 21.3282 15.1713 21.1451 14.9063L17.3005 8.94375C17.1174 8.67875 17.0259 8.3475 17.0259 7.95C17.0259 7.5525 17.1174 7.22125 17.3005 6.95625L21.1451 0.99375C21.3282 0.72875 21.5918 0.496433 21.936 0.2968C22.2783 0.0989333 22.6326 0 22.9987 0H30.0013C30.3674 0 30.7226 0.0989333 31.0668 0.2968C31.4091 0.496433 31.6719 0.72875 31.8549 0.99375L35.6995 6.95625C35.8826 7.22125 35.9741 7.5525 35.9741 7.95C35.9741 8.3475 35.8826 8.67875 35.6995 8.94375L31.8549 14.9063C31.6719 15.1713 31.4091 15.4027 31.0668 15.6006C30.7226 15.8002 30.3674 15.9 30.0013 15.9H22.9987ZM5.9728 25.175C5.60665 25.175 5.2524 25.0752 4.91005 24.8756C4.56587 24.6777 4.30225 24.4463 4.11917 24.1813L0.274612 18.2188C0.0915375 17.9538 0 17.6225 0 17.225C0 16.8275 0.0915375 16.4963 0.274612 16.2313L4.11917 10.2688C4.30225 10.0038 4.56587 9.77143 4.91005 9.5718C5.2524 9.37393 5.60665 9.275 5.9728 9.275H12.9754C13.3415 9.275 13.6967 9.37393 14.0409 9.5718C14.3832 9.77143 14.6459 10.0038 14.829 10.2688L18.6736 16.2313C18.8566 16.4963 18.9482 16.8275 18.9482 17.225C18.9482 17.6225 18.8566 17.9538 18.6736 18.2188L14.829 24.1813C14.6459 24.4463 14.3832 24.6777 14.0409 24.8756C13.6967 25.0752 13.3415 25.175 12.9754 25.175H5.9728ZM5.9728 43.725C5.60665 43.725 5.2524 43.6252 4.91005 43.4255C4.56587 43.2277 4.30225 42.9963 4.11917 42.7313L0.274612 36.7688C0.0915375 36.5037 0 36.1725 0 35.775C0 35.3775 0.0915375 35.0462 0.274612 34.7812L4.11917 28.8188C4.30225 28.5538 4.56587 28.3223 4.91005 28.1245C5.2524 27.9248 5.60665 27.825 5.9728 27.825H12.9754C13.3415 27.825 13.6967 27.9248 14.0409 28.1245C14.3832 28.3223 14.6459 28.5538 14.829 28.8188L18.6736 34.7812C18.8566 35.0462 18.9482 35.3775 18.9482 35.775C18.9482 36.1725 18.8566 36.5037 18.6736 36.7688L14.829 42.7313C14.6459 42.9963 14.3832 43.2277 14.0409 43.4255C13.6967 43.6252 13.3415 43.725 12.9754 43.725H5.9728ZM22.9987 53C22.6326 53 22.2783 52.9002 21.936 52.7006C21.5918 52.5027 21.3282 52.2713 21.1451 52.0063L17.3005 46.0438C17.1174 45.7788 17.0259 45.4475 17.0259 45.05C17.0259 44.6525 17.1174 44.3213 17.3005 44.0563L21.1451 38.0938C21.3282 37.8288 21.5918 37.5973 21.936 37.3995C22.2783 37.1998 22.6326 37.1 22.9987 37.1H30.0013C30.3674 37.1 30.7226 37.1998 31.0668 37.3995C31.4091 37.5973 31.6719 37.8288 31.8549 38.0938L35.6995 44.0563C35.8826 44.3213 35.9741 44.6525 35.9741 45.05C35.9741 45.4475 35.8826 45.7788 35.6995 46.0438L31.8549 52.0063C31.6719 52.2713 31.4091 52.5027 31.0668 52.7006C30.7226 52.9002 30.3674 53 30.0013 53H22.9987ZM40.0246 43.725C39.6585 43.725 39.3042 43.6252 38.9619 43.4255C38.6177 43.2277 38.3541 42.9742 38.171 42.665L34.7383 36.835C34.5553 36.5258 34.4637 36.1725 34.4637 35.775C34.4637 35.3775 34.5553 35.0242 34.7383 34.715L38.171 28.885C38.3541 28.5758 38.6177 28.3223 38.9619 28.1245C39.3042 27.9248 39.6585 27.825 40.0246 27.825H47.0272C47.3934 27.825 47.7485 27.9248 48.0927 28.1245C48.435 28.3223 48.6978 28.5538 48.8808 28.8188L52.7254 34.7812C52.9085 35.0462 53 35.3775 53 35.775C53 36.1725 52.9085 36.5037 52.7254 36.7688L48.8808 42.7313C48.6978 42.9963 48.435 43.2277 48.0927 43.4255C47.7485 43.6252 47.3934 43.725 47.0272 43.725H40.0246Z" fill="black"/>
</g>
<defs>
<filter id="filter0_d_203_42" x="0" y="0" width="56" height="56" filterUnits="userSpaceOnUse" color-interpolation-filters="sRGB">
<feFlood flood-opacity="0" result="BackgroundImageFix"/>
<feColorMatrix in="SourceAlpha" type="matrix" values="0 0 0 0 0 0 0 0 0 0 0 0 0 0 0 0 0 0 127 0" result="hardAlpha"/>
<feOffset dx="2" dy="2"/>
<feGaussianBlur stdDeviation="0.5"/>
<feComposite in2="hardAlpha" operator="out"/>
<feColorMatrix type="matrix" values="0 0 0 0 0 0 0 0 0 0 0 0 0 0 0 0 0 0 0.25 0"/>
<feBlend mode="normal" in2="BackgroundImageFix" result="effect1_dropShadow_203_42"/>
<feBlend mode="normal" in="SourceGraphic" in2="effect1_dropShadow_203_42" result="shape"/>
</filter>
</defs>
</svg>
