<svg width="38" height="38" viewBox="0 0 38 38" fill="none" xmlns="http://www.w3.org/2000/svg">
<path d="M28.6969 18.05C28.4344 18.05 28.1804 17.9784 27.9349 17.8353C27.6882 17.6934 27.4991 17.5117 27.3679 17.29L24.9067 13.11C24.7755 12.8883 24.7098 12.635 24.7098 12.35C24.7098 12.065 24.7755 11.8117 24.9067 11.59L27.3679 7.41C27.4991 7.18833 27.6882 7.00593 27.9349 6.8628C28.1804 6.72093 28.4344 6.65 28.6969 6.65H33.7176C33.9801 6.65 34.2348 6.72093 34.4816 6.8628C34.727 7.00593 34.9154 7.1725 35.0466 7.3625L37.8031 11.6375C37.9344 11.8275 38 12.065 38 12.35C38 12.635 37.9344 12.8725 37.8031 13.0625L35.0466 17.3375C34.9154 17.5275 34.727 17.6934 34.4816 17.8353C34.2348 17.9784 33.9801 18.05 33.7176 18.05H28.6969ZM16.4896 24.7C16.2271 24.7 15.9731 24.6284 15.7277 24.4853C15.4809 24.3434 15.2919 24.1775 15.1606 23.9875L12.4041 19.7125C12.2729 19.5225 12.2073 19.285 12.2073 19C12.2073 18.715 12.2729 18.4775 12.4041 18.2875L15.1606 14.0125C15.2919 13.8225 15.4809 13.6566 15.7277 13.5147C15.9731 13.3716 16.2271 13.3 16.4896 13.3H21.5104C21.7729 13.3 22.0275 13.3716 22.2743 13.5147C22.5198 13.6566 22.7081 13.8225 22.8394 14.0125L25.5959 18.2875C25.7271 18.4775 25.7927 18.715 25.7927 19C25.7927 19.285 25.7271 19.5225 25.5959 19.7125L22.8394 23.9875C22.7081 24.1775 22.5198 24.3434 22.2743 24.4853C22.0275 24.6284 21.7729 24.7 21.5104 24.7H16.4896ZM16.4896 11.4C16.2271 11.4 15.9731 11.3284 15.7277 11.1853C15.4809 11.0434 15.2919 10.8775 15.1606 10.6875L12.4041 6.4125C12.2729 6.2225 12.2073 5.985 12.2073 5.7C12.2073 5.415 12.2729 5.1775 12.4041 4.9875L15.1606 0.7125C15.2919 0.5225 15.4809 0.355933 15.7277 0.2128C15.9731 0.0709333 16.2271 0 16.4896 0H21.5104C21.7729 0 22.0275 0.0709333 22.2743 0.2128C22.5198 0.355933 22.7081 0.5225 22.8394 0.7125L25.5959 4.9875C25.7271 5.1775 25.7927 5.415 25.7927 5.7C25.7927 5.985 25.7271 6.2225 25.5959 6.4125L22.8394 10.6875C22.7081 10.8775 22.5198 11.0434 22.2743 11.1853C22.0275 11.3284 21.7729 11.4 21.5104 11.4H16.4896ZM4.28238 18.05C4.01986 18.05 3.76587 17.9784 3.52041 17.8353C3.27364 17.6934 3.08463 17.5275 2.95337 17.3375L0.196891 13.0625C0.0656307 12.8725 0 12.635 0 12.35C0 12.065 0.0656307 11.8275 0.196891 11.6375L2.95337 7.3625C3.08463 7.1725 3.27364 7.00593 3.52041 6.8628C3.76587 6.72093 4.01986 6.65 4.28238 6.65H9.30311C9.56563 6.65 9.82028 6.72093 10.067 6.8628C10.3125 7.00593 10.5009 7.1725 10.6321 7.3625L13.3886 11.6375C13.5199 11.8275 13.5855 12.065 13.5855 12.35C13.5855 12.635 13.5199 12.8725 13.3886 13.0625L10.6321 17.3375C10.5009 17.5275 10.3125 17.6934 10.067 17.8353C9.82028 17.9784 9.56563 18.05 9.30311 18.05H4.28238ZM4.28238 31.35C4.01986 31.35 3.76587 31.2784 3.52041 31.1353C3.27364 30.9934 3.08463 30.8275 2.95337 30.6375L0.196891 26.3625C0.0656307 26.1725 0 25.935 0 25.65C0 25.365 0.0656307 25.1275 0.196891 24.9375L2.95337 20.6625C3.08463 20.4725 3.27364 20.3066 3.52041 20.1647C3.76587 20.0216 4.01986 19.95 4.28238 19.95H9.30311C9.56563 19.95 9.82028 20.0216 10.067 20.1647C10.3125 20.3066 10.5009 20.4725 10.6321 20.6625L13.3886 24.9375C13.5199 25.1275 13.5855 25.365 13.5855 25.65C13.5855 25.935 13.5199 26.1725 13.3886 26.3625L10.6321 30.6375C10.5009 30.8275 10.3125 30.9934 10.067 31.1353C9.82028 31.2784 9.56563 31.35 9.30311 31.35H4.28238ZM16.4896 38C16.2271 38 15.9731 37.9284 15.7277 37.7853C15.4809 37.6434 15.2919 37.4775 15.1606 37.2875L12.4041 33.0125C12.2729 32.8225 12.2073 32.585 12.2073 32.3C12.2073 32.015 12.2729 31.7775 12.4041 31.5875L15.1606 27.3125C15.2919 27.1225 15.4809 26.9566 15.7277 26.8147C15.9731 26.6716 16.2271 26.6 16.4896 26.6H21.5104C21.7729 26.6 22.0275 26.6716 22.2743 26.8147C22.5198 26.9566 22.7081 27.1225 22.8394 27.3125L25.5959 31.5875C25.7271 31.7775 25.7927 32.015 25.7927 32.3C25.7927 32.585 25.7271 32.8225 25.5959 33.0125L22.8394 37.2875C22.7081 37.4775 22.5198 37.6434 22.2743 37.7853C22.0275 37.9284 21.7729 38 21.5104 38H16.4896ZM28.6969 31.35C28.4344 31.35 28.1804 31.2784 27.9349 31.1353C27.6882 30.9934 27.4991 30.8117 27.3679 30.59L24.9067 26.41C24.7755 26.1883 24.7098 25.935 24.7098 25.65C24.7098 25.365 24.7755 25.1117 24.9067 24.89L27.3679 20.71C27.4991 20.4883 27.6882 20.3066 27.9349 20.1647C28.1804 20.0216 28.4344 19.95 28.6969 19.95H33.7176C33.9801 19.95 34.2348 20.0216 34.4816 20.1647C34.727 20.3066 34.9154 20.4725 35.0466 20.6625L37.8031 24.9375C37.9344 25.1275 38 25.365 38 25.65C38 25.935 37.9344 26.1725 37.8031 26.3625L35.0466 30.6375C34.9154 30.8275 34.727 30.9934 34.4816 31.1353C34.2348 31.2784 33.9801 31.35 33.7176 31.35H28.6969Z" fill="#FAF3E0"/>
</svg>
