<svg width="55" height="58" viewBox="0 0 55 58" fill="none" xmlns="http://www.w3.org/2000/svg">
<g filter="url(#filter0_d_216_76)">
<path d="M29.7458 50.3559L11.5106 40.66C11.179 40.4837 10.8728 39.9279 10.9397 38.814C11.004 37.7407 11.4104 36.4146 12.0891 35.1381L27.9963 5.22093C28.6751 3.94441 29.5472 2.86604 30.4011 2.21244C31.2871 1.53419 31.9192 1.47716 32.2507 1.65345L50.4859 11.3493C50.8175 11.5256 51.1236 12.0814 51.0568 13.1953C50.9924 14.2687 50.5861 15.5947 49.9074 16.8713L34.0002 46.7884C33.3214 48.0649 32.4493 49.1433 31.5954 49.7969C30.7094 50.4751 30.0773 50.5322 29.7458 50.3559Z" fill="#2E2E2E" stroke="#FAF3E0"/>
<path d="M26.1931 29.565L26.1848 29.2744L25.9281 29.1379L24.4144 28.3331C24.2308 28.2354 24.0926 28.1045 23.9905 27.9361C23.8861 27.764 23.8295 27.5769 23.8211 27.366L23.7773 25.5191L23.7771 25.51L23.7766 25.501C23.7651 25.3093 23.8032 25.1347 23.8923 24.967C23.9815 24.7993 24.1049 24.6701 24.2703 24.5724L24.2772 24.5683L24.284 24.564L25.8701 23.5571L26.1098 23.405L26.1019 23.1211L26.0497 21.2431L26.0495 21.2351L26.049 21.2271C26.0375 21.0354 26.0756 20.8608 26.1648 20.6931C26.2539 20.5254 26.3774 20.3962 26.5428 20.2985L26.5506 20.2939L26.5582 20.289L28.1142 19.2923C28.2929 19.1815 28.4794 19.1237 28.6807 19.1142C28.8784 19.1048 29.0643 19.1463 29.2473 19.2436L30.761 20.0485L31.0176 20.1849L31.2632 20.0295L32.811 19.0497C32.99 18.9385 33.1768 18.8805 33.3785 18.871L33.3548 18.3715L33.3785 18.871C33.5762 18.8616 33.7621 18.9031 33.9451 19.0004L35.4766 19.8147C35.6602 19.9123 35.7988 20.0435 35.9015 20.2125C36.0063 20.385 36.0625 20.5719 36.0699 20.7821C36.0699 20.7825 36.07 20.783 36.07 20.7834L36.1232 22.6136L36.1317 22.9041L36.3883 23.0405L37.9019 23.8454C38.0856 23.943 38.2241 24.0741 38.3268 24.2431C38.4315 24.4153 38.4876 24.6019 38.4952 24.8115L38.539 26.6594L38.5392 26.6684L38.5398 26.6774C38.5513 26.8692 38.5132 27.0438 38.424 27.2114C38.3348 27.3791 38.2114 27.5083 38.046 27.606L38.0391 27.6101L38.0324 27.6144L36.4462 28.6213L36.2065 28.7735L36.2144 29.0573L36.2666 30.9353L36.2668 30.9433L36.2673 30.9513C36.2788 31.143 36.2407 31.3176 36.1515 31.4853C36.0624 31.653 35.9389 31.7822 35.7736 31.8799L35.7658 31.8845L35.7582 31.8894L34.2022 32.8861C34.0232 32.9971 33.8368 33.0549 33.6359 33.0646C33.4393 33.0741 33.2532 33.0328 33.069 32.9348L31.5553 32.13L31.2987 31.9935L31.0532 32.149L29.5068 33.1278C29.5063 33.1281 29.5059 33.1284 29.5054 33.1287C29.3261 33.2401 29.1394 33.2981 28.9381 33.3079C28.7417 33.3173 28.5554 33.2759 28.3705 33.1776L26.839 32.3633C26.6554 32.2657 26.5172 32.1348 26.4151 31.9663L26.0548 32.1849L26.4151 31.9663C26.3106 31.794 26.254 31.6065 26.2457 31.3951L26.1931 29.565ZM33.8507 26.8848L33.8576 27.1771L34.1158 27.3144L35.6473 28.1287L35.9083 28.2675L36.1557 28.1057L37.6968 27.0977L37.9269 26.9471L37.923 26.6721L37.8969 24.8309L37.8928 24.5353L37.6317 24.3965L36.1003 23.5822L35.8421 23.4449L35.5958 23.6027L34.037 24.6012L33.8002 24.7529L33.8068 25.0341L33.8507 26.8848ZM29.1529 27.128L29.1598 27.4203L29.418 27.5576L30.9139 28.353L31.1721 28.4903L31.4183 28.3325L32.9771 27.334L33.214 27.1823L33.2073 26.9011L33.1634 25.0504L33.1565 24.7581L32.8983 24.6208L31.4025 23.8254L31.1443 23.6881L30.898 23.8459L29.3392 24.8444L29.1024 24.9961L29.109 25.2773L29.1529 27.128ZM31.4254 22.8562L31.4335 23.1471L31.6905 23.2837L33.1863 24.0791L33.4433 24.2158L33.689 24.0598L35.2752 23.0529L35.5152 22.9005L35.507 22.6162L35.4536 20.7833L35.4452 20.4928L35.1886 20.3564L33.6571 19.5421L33.4005 19.4056L33.155 19.5611L31.6056 20.5418L31.3653 20.6939L31.3732 20.9782L31.4254 22.8562ZM30.5518 23.3033L30.7886 23.1516L30.782 22.8705L30.7381 21.0198L30.7312 20.7274L30.473 20.5901L28.9593 19.7853L28.7011 19.648L28.4549 19.8057L26.896 20.8043L26.6592 20.956L26.6659 21.2372L26.7097 23.0879L26.7167 23.3802L26.9749 23.5175L28.4885 24.3223L28.7467 24.4596L28.993 24.3019L30.5518 23.3033ZM28.2793 27.5772L28.5162 27.4255L28.5095 27.1443L28.4656 25.2936L28.4587 25.0013L28.2005 24.864L26.669 24.0497L26.408 23.9109L26.1606 24.0728L24.6196 25.0808L24.3868 25.233L24.3934 25.511L24.4373 27.3618L24.4442 27.6541L24.7024 27.7914L26.2161 28.5962L26.4743 28.7335L26.7205 28.5758L28.2793 27.5772ZM29.13 28.0993L28.873 27.9627L28.6273 28.1187L27.0412 29.1255L26.8011 29.2779L26.8094 29.5622L26.8627 31.3951L26.8711 31.6856L27.1277 31.822L28.6592 32.6363L28.9158 32.7728L29.1614 32.6173L30.7107 31.6366L30.951 31.4845L30.9431 31.2002L30.8909 29.3222L30.8828 29.0313L30.6259 28.8947L29.13 28.0993ZM31.5782 31.1587L31.5852 31.451L31.8433 31.5883L33.357 32.3931L33.6152 32.5304L33.8614 32.3727L35.4203 31.3741L35.6571 31.2224L35.6504 30.9413L35.6066 29.0905L35.5997 28.7982L35.3415 28.6609L33.8278 27.8561L33.5696 27.7188L33.3234 27.8765L31.7645 28.8751L31.5277 29.0268L31.5344 29.3079L31.5782 31.1587Z" fill="#FAF3E0" stroke="#FAF3E0"/>
<path d="M35.9032 47.1442L16.2614 53.5263C15.9043 53.6423 15.2917 53.4764 14.5369 52.6546C13.8095 51.8626 13.1379 50.6492 12.6911 49.2742L2.22061 17.0493C1.77385 15.6743 1.60398 14.2979 1.72696 13.2296C1.85458 12.1211 2.25261 11.6268 2.60974 11.5108L22.2516 5.12876C22.6087 5.01272 23.2212 5.17863 23.9761 6.00044C24.7035 6.79239 25.3751 8.00582 25.8219 9.38081L36.2924 41.6057C36.7391 42.9807 36.909 44.3572 36.786 45.4254C36.6584 46.5339 36.2604 47.0282 35.9032 47.1442Z" fill="#2E2E2E" stroke="#FAF3E0"/>
<path d="M18.4804 35.2578L18.2655 35.0619L17.989 35.1518L16.3586 35.6815C16.1608 35.7458 15.9706 35.7542 15.7785 35.7107C15.5823 35.6663 15.4083 35.5769 15.2508 35.4365L13.8918 34.185L13.8851 34.1789L13.8783 34.173C13.7324 34.0481 13.6332 33.8994 13.5746 33.7188C13.5159 33.5382 13.5087 33.3596 13.5533 33.1728L13.5551 33.165L13.5568 33.1571L13.9343 31.3167L13.9913 31.0386L13.7817 30.8471L12.3945 29.5801L12.3886 29.5747L12.3825 29.5695C12.2366 29.4445 12.1375 29.2959 12.0788 29.1152C12.0201 28.9346 12.0129 28.7561 12.0575 28.5692L12.0596 28.5604L12.0614 28.5516L12.4253 26.7399C12.4697 26.5343 12.5577 26.3601 12.6907 26.2086C12.8213 26.0599 12.9803 25.955 13.1774 25.8909L14.8079 25.3612L15.0842 25.2714L15.143 24.9868L15.5134 23.1928C15.5578 22.9867 15.6458 22.8121 15.7791 22.6604L15.4034 22.3304L15.7791 22.6604C15.9097 22.5117 16.0687 22.4067 16.2658 22.3427L17.9154 21.8067C18.1132 21.7424 18.3038 21.7339 18.4967 21.7774C18.6936 21.8218 18.8671 21.9113 19.0235 22.0519C19.0238 22.0522 19.0241 22.0525 19.0245 22.0528L20.378 23.2858L20.5928 23.4815L20.8692 23.3917L22.4996 22.862C22.6974 22.7977 22.888 22.7892 23.0809 22.8327C23.2774 22.877 23.4506 22.9662 23.6068 23.1064L24.9664 24.3585L24.9731 24.3646L24.9799 24.3705C25.1258 24.4954 25.225 24.6441 25.2836 24.8247C25.3423 25.0053 25.3495 25.1839 25.3049 25.3707L25.3031 25.3785L25.3014 25.3864L24.9239 27.2268L24.8669 27.5049L25.0765 27.6964L26.4637 28.9634L26.4696 28.9688L26.4757 28.974C26.6216 29.099 26.7207 29.2476 26.7794 29.4283C26.8381 29.6089 26.8453 29.7874 26.8007 29.9743L26.7986 29.9831L26.7968 29.9919L26.4329 31.8036C26.3885 32.0095 26.3005 32.1837 26.168 32.335C26.0382 32.483 25.8792 32.5881 25.6808 32.6526L24.0504 33.1823L23.774 33.2721L23.7152 33.5567L23.3451 35.3491C23.345 35.3496 23.3449 35.3501 23.3448 35.3506C23.3004 35.557 23.2124 35.7317 23.0796 35.8832C22.9499 36.0311 22.7907 36.1364 22.5916 36.2011L20.942 36.7371C20.7442 36.8013 20.5541 36.8098 20.3619 36.7662L20.2689 37.1772L20.3619 36.7662C20.1654 36.7217 19.9911 36.6322 19.8333 36.4913L18.4804 35.2578ZM21.8718 27.8876L22.0869 28.0857L22.365 27.9953L24.0146 27.4593L24.2958 27.3679L24.3512 27.0776L24.6966 25.2688L24.7482 24.9987L24.5477 24.8105L23.2051 23.5502L22.9896 23.3479L22.7084 23.4392L21.0588 23.9752L20.7807 24.0656L20.7231 24.3523L20.3585 26.1672L20.3031 26.443L20.51 26.6335L21.8718 27.8876ZM18.7834 31.4358L18.9985 31.6339L19.2766 31.5436L20.8878 31.02L21.1659 30.9297L21.2235 30.643L21.5881 28.828L21.6435 28.5523L21.4366 28.3617L20.0748 27.1077L19.8597 26.9096L19.5816 26.9999L17.9704 27.5235L17.6923 27.6138L17.6347 27.9005L17.2701 29.7155L17.2147 29.9912L17.4216 30.1818L18.7834 31.4358ZM17.2891 26.8337L17.504 27.0299L17.7808 26.94L19.392 26.4165L19.6688 26.3265L19.7273 26.0414L20.1049 24.201L20.162 23.9224L19.9518 23.7309L18.5962 22.4961L18.3814 22.3003L18.105 22.3901L16.4554 22.9261L16.179 23.0159L16.1202 23.3006L15.7494 25.0964L15.6919 25.3749L15.9019 25.5666L17.2891 26.8337ZM17.0039 27.7727L17.0593 27.497L16.8524 27.3064L15.4906 26.0524L15.2755 25.8543L14.9974 25.9446L13.367 26.4744L13.0889 26.5648L13.0313 26.8515L12.6667 28.6664L12.6113 28.9422L12.8182 29.1327L14.18 30.3868L14.3951 30.5849L14.6732 30.4945L16.3036 29.9647L16.5817 29.8744L16.6393 29.5877L17.0039 27.7727ZM18.4997 32.3763L18.5551 32.1005L18.3482 31.91L16.9864 30.6559L16.7713 30.4578L16.4932 30.5482L14.8436 31.0842L14.5624 31.1756L14.507 31.4659L14.1616 33.2747L14.1094 33.5479L14.314 33.7363L15.6758 34.9903L15.8909 35.1884L16.169 35.0981L17.7994 34.5683L18.0775 34.4779L18.1351 34.1912L18.4997 32.3763ZM19.4662 32.127L19.1894 32.217L19.1309 32.5021L18.7533 34.3425L18.6962 34.621L18.9064 34.8126L20.262 36.0474L20.4768 36.2432L20.7532 36.1533L22.4028 35.6174L22.6792 35.5276L22.738 35.2429L23.1088 33.4471L23.1663 33.1686L22.9563 32.9769L21.5691 31.7098L21.3542 31.5136L21.0774 31.6035L19.4662 32.127ZM23.3676 32.4911L23.5827 32.6892L23.8608 32.5988L25.4912 32.0691L25.7693 31.9787L25.8269 31.692L26.1915 29.8771L26.2469 29.6013L26.04 29.4108L24.6782 28.1567L24.4631 27.9586L24.185 28.049L22.5546 28.5788L22.2765 28.6691L22.2189 28.9558L21.8543 30.7708L21.7989 31.0465L22.0058 31.2371L23.3676 32.4911Z" fill="#2E2E2E" stroke="#FAF3E0"/>
</g>
<defs>
<filter id="filter0_d_216_76" x="1.18799" y="1.06689" width="53.3779" height="55.9937" filterUnits="userSpaceOnUse" color-interpolation-filters="sRGB">
<feFlood flood-opacity="0" result="BackgroundImageFix"/>
<feColorMatrix in="SourceAlpha" type="matrix" values="0 0 0 0 0 0 0 0 0 0 0 0 0 0 0 0 0 0 127 0" result="hardAlpha"/>
<feOffset dx="2" dy="2"/>
<feGaussianBlur stdDeviation="0.5"/>
<feComposite in2="hardAlpha" operator="out"/>
<feColorMatrix type="matrix" values="0 0 0 0 0 0 0 0 0 0 0 0 0 0 0 0 0 0 0.25 0"/>
<feBlend mode="normal" in2="BackgroundImageFix" result="effect1_dropShadow_216_76"/>
<feBlend mode="normal" in="SourceGraphic" in2="effect1_dropShadow_216_76" result="shape"/>
</filter>
</defs>
</svg>
