<svg width="42" height="43" viewBox="0 0 42 43" fill="none" xmlns="http://www.w3.org/2000/svg">
<path d="M23.1971 39.0836L9.0084 31.5394C8.811 31.4344 8.57151 31.0635 8.62286 30.2076C8.67177 29.3922 8.98173 28.3759 9.50444 27.3928L21.8818 4.11446C22.4045 3.13139 23.0737 2.30613 23.7224 1.80959C24.4032 1.2884 24.8446 1.27955 25.042 1.38451L39.2307 8.92878C39.4281 9.03374 39.6676 9.40463 39.6163 10.2605C39.5674 11.076 39.2574 12.0923 38.7347 13.0753L26.3574 36.3537C25.8347 37.3368 25.1655 38.162 24.5168 38.6586C23.8359 39.1798 23.3945 39.1886 23.1971 39.0836Z" fill="#FAF3E0" stroke="#2E2E2E"/>
<path d="M20.4834 22.7108L20.2266 22.5743L19.0489 21.9481C18.9232 21.8813 18.8307 21.7932 18.7618 21.6796L18.3343 21.9389L18.7618 21.6796C18.6907 21.5624 18.652 21.4354 18.646 21.29L18.612 19.8539L18.6118 19.8448L18.6112 19.8358C18.6035 19.7069 18.6288 19.5914 18.6885 19.479C18.7483 19.3666 18.8299 19.2811 18.9411 19.2154L18.948 19.2113L18.9548 19.207L20.1889 18.4236L20.4286 18.2714L20.4208 17.9876L20.3801 16.5263L20.3799 16.5183L20.3794 16.5103C20.3717 16.3814 20.397 16.2659 20.4567 16.1535C20.5165 16.0412 20.5981 15.9556 20.7093 15.8899L20.7171 15.8853L20.7247 15.8805L21.9347 15.1054C22.0578 15.0291 22.1844 14.9902 22.3216 14.9837C22.4551 14.9774 22.58 15.005 22.7052 15.0716L23.8829 15.6978L24.1395 15.8342L24.3851 15.6788L25.589 14.9167C25.7125 14.8401 25.8394 14.801 25.9769 14.7945C26.1104 14.7882 26.2354 14.8158 26.3605 14.8823L27.5521 15.5159C27.6778 15.5827 27.7707 15.671 27.84 15.7851C27.9115 15.9027 27.9498 16.0295 27.955 16.1743L27.9964 17.599L28.0049 17.8895L28.2615 18.0259L29.4393 18.6522C29.5649 18.719 29.6578 18.8072 29.7271 18.9213C29.7984 19.0386 29.8367 19.1651 29.8421 19.3093L29.8761 20.7464L29.8764 20.7554L29.8769 20.7644C29.8846 20.8934 29.8594 21.0089 29.7996 21.1212C29.7399 21.2336 29.6582 21.3191 29.547 21.3848L29.5401 21.3889L29.5334 21.3932L28.2992 22.1766L28.0595 22.3288L28.0674 22.6127L28.108 24.0739L28.1082 24.0819L28.1087 24.0899C28.1164 24.2188 28.0912 24.3343 28.0314 24.4467C27.9717 24.5591 27.89 24.6446 27.7789 24.7103L27.7711 24.7149L27.7635 24.7198L26.5534 25.4949C26.43 25.5713 26.3034 25.6102 26.1666 25.6168C26.0341 25.6232 25.9091 25.5958 25.783 25.5287L24.6052 24.9024L24.3486 24.766L24.103 24.9214L22.9004 25.6827C22.9 25.6829 22.8996 25.6832 22.8991 25.6835C22.7754 25.7603 22.6485 25.7995 22.5113 25.8061C22.379 25.8125 22.2538 25.785 22.1271 25.7176L20.9355 25.084C20.8098 25.0172 20.7173 24.9291 20.6484 24.8155C20.5771 24.6981 20.5384 24.5707 20.5326 24.4248L20.4917 23.0014L20.4834 22.7108ZM26.2282 20.9218L26.2351 21.2141L26.4933 21.3514L27.6849 21.985L27.946 22.1238L28.1934 21.962L29.3924 21.1776L29.6226 21.0271L29.6187 20.7521L29.5984 19.3195L29.5942 19.0239L29.3332 18.8851L28.1416 18.2515L27.8834 18.1142L27.6371 18.2719L26.4242 19.0489L26.1874 19.2006L26.1941 19.4817L26.2282 20.9218ZM22.5729 21.111L22.5798 21.4034L22.838 21.5407L24.0019 22.1595L24.2601 22.2968L24.5063 22.1391L25.7193 21.3621L25.9561 21.2104L25.9494 20.9292L25.9153 19.4892L25.9084 19.1969L25.6502 19.0596L24.4862 18.4407L24.228 18.3034L23.9818 18.4612L22.7689 19.2381L22.5321 19.3898L22.5387 19.671L22.5729 21.111ZM24.3411 17.7876L24.3492 18.0785L24.6062 18.2152L25.7701 18.834L26.0271 18.9707L26.2728 18.8147L27.5069 18.0312L27.747 17.8788L27.7388 17.5946L27.6973 16.1684L27.6888 15.8779L27.4322 15.7415L26.2406 15.1079L25.984 14.9714L25.7384 15.1269L24.5329 15.89L24.2926 16.0421L24.3005 16.3263L24.3411 17.7876ZM23.8321 18.2259L24.0689 18.0742L24.0623 17.793L24.0281 16.353L24.0212 16.0606L23.763 15.9234L22.5852 15.2971L22.3271 15.1598L22.0808 15.3176L20.8679 16.0945L20.6311 16.2462L20.6377 16.5274L20.6719 17.9674L20.6788 18.2598L20.937 18.3971L22.1148 19.0233L22.373 19.1606L22.6192 19.0028L23.8321 18.2259ZM22.0639 21.5514L22.3008 21.3997L22.2941 21.1185L22.26 19.6785L22.253 19.3861L21.9948 19.2488L20.8032 18.6152L20.5422 18.4764L20.2948 18.6383L19.0957 19.4226L18.8629 19.5748L18.8695 19.8529L18.9037 21.2929L18.9106 21.5853L19.1688 21.7225L20.3466 22.3488L20.6048 22.4861L20.851 22.3283L22.0639 21.5514ZM22.7181 21.7662L22.4611 21.6296L22.2153 21.7855L20.9812 22.569L20.7411 22.7214L20.7494 23.0057L20.7909 24.4318L20.7993 24.7223L21.0559 24.8588L22.2476 25.4924L22.5042 25.6288L22.7497 25.4734L23.9553 24.7103L24.1956 24.5582L24.1877 24.2739L24.147 22.8126L24.139 22.5217L23.882 22.3851L22.7181 21.7662ZM24.46 24.2473L24.4669 24.5396L24.7251 24.6769L25.9029 25.3031L26.1611 25.4404L26.4073 25.2827L27.6202 24.5057L27.8571 24.354L27.8504 24.0728L27.8163 22.6328L27.8094 22.3405L27.5512 22.2032L26.3734 21.577L26.1152 21.4397L25.8689 21.5974L24.656 22.3744L24.4192 22.5261L24.4259 22.8072L24.46 24.2473Z" fill="#2E2E2E" stroke="#2E2E2E"/>
<path d="M27.9018 36.577L12.6186 41.5428C12.406 41.6119 11.9728 41.5265 11.3928 40.895C10.8402 40.2934 10.3245 39.3644 9.98041 38.3055L1.83337 13.2315C1.48931 12.1726 1.36054 11.118 1.45396 10.3064C1.55203 9.45459 1.85228 9.13092 2.06491 9.06183L17.3481 4.09602C17.5607 4.02693 17.9939 4.1123 18.5739 4.7438C19.1265 5.34544 19.6423 6.27437 19.9863 7.33327L28.1334 32.4073C28.4774 33.4662 28.6062 34.5208 28.5128 35.3324C28.4147 36.1842 28.1144 36.5079 27.9018 36.577Z" fill="#FAF3E0" stroke="#2E2E2E"/>
<path d="M14.2394 27.1556L13.9629 27.2455L12.6943 27.6577C12.559 27.7016 12.4313 27.707 12.3018 27.6777L12.1913 28.1653L12.3018 27.6777C12.1681 27.6474 12.0498 27.587 11.9411 27.4903L10.8844 26.5171L10.8777 26.511L10.8709 26.5051C10.7728 26.4212 10.7072 26.3227 10.6679 26.2017C10.6286 26.0807 10.6237 25.9625 10.6537 25.8369L10.6556 25.8291L10.6572 25.8213L10.951 24.3893L11.008 24.1111L10.7984 23.9196L9.719 22.9338L9.71308 22.9284L9.70699 22.9231C9.6089 22.8392 9.54335 22.7407 9.50402 22.6197C9.4647 22.4987 9.45988 22.3805 9.48987 22.2549L9.49197 22.2461L9.49375 22.2373L9.77675 20.8284C9.80744 20.6869 9.86739 20.5688 9.958 20.4656C10.0462 20.3652 10.1529 20.2945 10.2876 20.2507L11.5563 19.8385L11.8327 19.7487L11.8914 19.4641L12.1796 18.0687C12.2102 17.9267 12.2702 17.8082 12.3611 17.7047C12.4493 17.6043 12.5559 17.5336 12.6907 17.4898L13.9743 17.0728C14.1096 17.0288 14.2376 17.0233 14.3679 17.0527C14.5021 17.0829 14.6199 17.1435 14.7277 17.2403L15.7813 18.2002L15.9962 18.3959L16.2726 18.3061L17.5412 17.8939C17.6765 17.8499 17.8046 17.8444 17.9348 17.8738C18.0687 17.904 18.1862 17.9643 18.2938 18.0607L19.3511 19.0344L19.3578 19.0405L19.3647 19.0464C19.4627 19.1304 19.5283 19.2288 19.5676 19.3498C19.6069 19.4709 19.6118 19.589 19.5818 19.7146L19.5799 19.7224L19.5783 19.7303L19.2846 21.1623L19.2275 21.4404L19.4372 21.6319L20.5165 22.6178L20.5224 22.6232L20.5285 22.6284C20.6266 22.7124 20.6922 22.8108 20.7315 22.9318C20.7708 23.0529 20.7756 23.171 20.7456 23.2966L20.7435 23.3054L20.7418 23.3143L20.4588 24.7232C20.428 24.865 20.3681 24.9831 20.2778 25.0861C20.1904 25.1859 20.0838 25.2567 19.9479 25.3008L18.6792 25.713L18.4028 25.8028L18.3441 26.0875L18.0563 27.4813C18.0562 27.4818 18.0561 27.4824 18.0559 27.4829C18.0253 27.6252 17.9653 27.7437 17.8747 27.847C17.7874 27.9466 17.6807 28.0176 17.5442 28.0619L16.2606 28.479C16.1253 28.5229 15.9976 28.5283 15.8681 28.499C15.7341 28.4686 15.6156 28.408 15.5066 28.3109L14.4543 27.3515L14.2394 27.1556ZM16.9432 21.7804L17.1583 21.9785L17.4364 21.8881L18.72 21.471L19.0012 21.3797L19.0566 21.0893L19.3253 19.6819L19.3769 19.4118L19.1764 19.2236L18.1318 18.243L17.9162 18.0406L17.6351 18.132L16.3515 18.549L16.0734 18.6394L16.0158 18.9261L15.7321 20.3383L15.6768 20.6141L15.8836 20.8046L16.9432 21.7804ZM14.5401 24.5413L14.7553 24.7393L15.0334 24.649L16.2871 24.2416L16.5652 24.1513L16.6228 23.8646L16.9064 22.4523L16.9618 22.1766L16.7549 21.9861L15.6954 21.0103L15.4803 20.8122L15.2021 20.9026L13.9484 21.3099L13.6703 21.4003L13.6127 21.687L13.3291 23.0992L13.2737 23.375L13.4806 23.5655L14.5401 24.5413ZM13.3778 20.9606L13.5927 21.1569L13.8695 21.067L15.1232 20.6596L15.4 20.5697L15.4585 20.2846L15.7522 18.8526L15.8094 18.574L15.5992 18.3825L14.5444 17.4216L14.3296 17.2259L14.0532 17.3157L12.7697 17.7328L12.4933 17.8226L12.4345 18.1072L12.146 19.5045L12.0885 19.783L12.2984 19.9748L13.3778 20.9606ZM13.3395 21.6312L13.3949 21.3555L13.188 21.165L12.1284 20.1892L11.9133 19.9911L11.6352 20.0815L10.3666 20.4937L10.0885 20.584L10.0309 20.8707L9.74721 22.2829L9.69182 22.5587L9.89871 22.7492L10.9583 23.725L11.1734 23.9231L11.4515 23.8327L12.7201 23.4205L12.9982 23.3302L13.0558 23.0435L13.3395 21.6312ZM14.5034 25.2132L14.5588 24.9375L14.3519 24.747L13.2923 23.7712L13.0772 23.5731L12.7991 23.6635L11.5155 24.0805L11.2344 24.1719L11.1789 24.4623L10.9102 25.8696L10.858 26.1428L11.0626 26.3312L12.1222 27.307L12.3373 27.5051L12.6154 27.4147L13.884 27.0025L14.1621 26.9122L14.2197 26.6255L14.5034 25.2132ZM15.1123 24.8919L14.8355 24.9819L14.777 25.267L14.4833 26.699L14.4261 26.9776L14.6363 27.1691L15.6911 28.1299L15.9059 28.3256L16.1823 28.2358L17.4659 27.8188L17.7422 27.729L17.801 27.4444L18.0895 26.0471L18.147 25.7686L17.9371 25.5768L16.8577 24.5909L16.6428 24.3946L16.366 24.4846L15.1123 24.8919ZM18.1071 25.3624L18.3222 25.5605L18.6003 25.4701L19.8689 25.0579L20.147 24.9675L20.2046 24.6808L20.4883 23.2686L20.5437 22.9929L20.3368 22.8023L19.2772 21.8266L19.0621 21.6285L18.784 21.7188L17.5154 22.131L17.2373 22.2214L17.1797 22.5081L16.896 23.9203L16.8406 24.1961L17.0475 24.3866L18.1071 25.3624Z" fill="#2E2E2E" stroke="#2E2E2E"/>
</svg>
