<svg width="40" height="40" viewBox="0 0 40 40" fill="none" xmlns="http://www.w3.org/2000/svg">
<circle cx="20" cy="20" r="19.5" fill="#885E3C" stroke="#2E2E2E"/>
<path d="M21.2857 12.2857C21.2857 11.9447 21.1503 11.6177 20.9091 11.3766C20.668 11.1355 20.341 11 20 11C19.659 11 19.332 11.1355 19.0909 11.3766C18.8497 11.6177 18.7143 11.9447 18.7143 12.2857V18.7143H12.2857C11.9447 18.7143 11.6177 18.8497 11.3766 19.0909C11.1355 19.332 11 19.659 11 20C11 20.341 11.1355 20.668 11.3766 20.9091C11.6177 21.1503 11.9447 21.2857 12.2857 21.2857H18.7143V27.7143C18.7143 28.0553 18.8497 28.3823 19.0909 28.6234C19.332 28.8645 19.659 29 20 29C20.341 29 20.668 28.8645 20.9091 28.6234C21.1503 28.3823 21.2857 28.0553 21.2857 27.7143V21.2857H27.7143C28.0553 21.2857 28.3823 21.1503 28.6234 20.9091C28.8645 20.668 29 20.341 29 20C29 19.659 28.8645 19.332 28.6234 19.0909C28.3823 18.8497 28.0553 18.7143 27.7143 18.7143H21.2857V12.2857Z" fill="#FAF3E0"/>
</svg>
