<svg width="75" height="75" viewBox="0 0 75 75" fill="none" xmlns="http://www.w3.org/2000/svg">
<path d="M41.8579 17.0945C40.4272 16.9398 38.9736 16.8511 37.5 16.829C31.0609 16.8576 24.3861 18.4238 18.0679 21.425C13.3768 23.7452 8.80713 27.0206 4.83856 31.0609C2.8895 33.1234 0.401938 36.1098 0 39.296C0.0475 42.0562 3.00956 45.4629 4.83856 47.5313C8.56 51.4129 13.0107 54.5946 18.0679 57.1672C18.2399 57.2506 18.4123 57.333 18.5852 57.4143L13.8932 65.6082L20.2685 69.3761L54.732 9.37404L48.5954 5.62354L41.8579 17.0945ZM56.4102 21.187L51.7272 29.303C53.8816 32.1019 55.1605 35.5534 55.1605 39.296C55.1605 48.6246 47.2529 56.1875 37.4954 56.1875C37.0736 56.1875 36.6648 56.142 36.2503 56.1143L33.1512 61.4793C34.5804 61.6323 36.0256 61.7439 37.4999 61.7631C43.9451 61.7342 50.6162 60.1498 56.9274 57.1672C61.6186 54.847 66.1928 51.5716 70.1614 47.5313C72.1105 45.4688 74.5979 42.4824 74.9999 39.296C74.9524 36.536 71.9904 33.1292 70.1614 31.0608C66.4399 27.1792 61.9847 23.9975 56.9274 21.4249C56.7567 21.3422 56.582 21.2677 56.4102 21.187ZM37.4954 22.4047C37.9233 22.4047 38.3478 22.4218 38.768 22.4504L35.1379 28.7355C30.0433 29.7683 26.2207 34.103 26.2207 39.2915C26.2207 40.5949 26.4608 41.8427 26.9028 42.9993C26.9032 43.0007 26.9023 43.0027 26.9028 43.004L23.2635 49.3074C21.1041 46.5059 19.8302 43.043 19.8302 39.296C19.8303 29.9675 27.738 22.4046 37.4954 22.4047ZM48.056 35.6568L39.8758 49.8292C44.9431 48.7769 48.7381 44.462 48.7381 39.2915C48.7381 38.0119 48.4827 36.7953 48.056 35.6568Z" fill="black"/>
</svg>
