<svg width="154" height="162" viewBox="0 0 154 162" fill="none" xmlns="http://www.w3.org/2000/svg">
<path d="M77.75 2.70096L77 2.26795L76.25 2.70096L9.56605 41.201L8.81605 41.634V42.5V119.5V120.366L9.56605 120.799L76.25 159.299L77 159.732L77.75 159.299L144.434 120.799L145.184 120.366V119.5V42.5V41.634L144.434 41.201L77.75 2.70096Z" fill="#2E2E2E" stroke="black" stroke-width="3"/>
<path fill-rule="evenodd" clip-rule="evenodd" d="M134.465 124.593L76.6019 158L20.6484 125.695C20.7517 125.517 20.8576 125.34 20.9662 125.163C23.1643 121.59 26.0801 118.86 29.7136 116.973C37.4925 113.083 45.3968 110.168 53.4266 108.225C61.4564 106.283 69.6117 105.31 77.8924 105.305C86.1731 105.3 94.3284 106.273 102.358 108.225C110.388 110.178 118.292 113.094 126.071 116.973C129.514 118.754 132.312 121.294 134.465 124.593ZM56.626 88.9314C62.5229 94.8282 69.6117 97.7767 77.8924 97.7767C86.1731 97.7767 93.2619 94.8282 99.1588 88.9314C105.056 83.0345 108.004 75.9457 108.004 67.665C108.004 59.3842 105.056 52.2954 99.1588 46.3985C93.2619 40.5017 86.1731 37.5532 77.8924 37.5532C69.6117 37.5532 62.5229 40.5017 56.626 46.3985C50.7291 52.2954 47.7807 59.3842 47.7807 67.665C47.7807 75.9457 50.7291 83.0345 56.626 88.9314Z" fill="#FAF3E0"/>
</svg>
